<svg width="240" height="240" viewBox="0 0 240 240" fill="none" xmlns="http://www.w3.org/2000/svg">
  <defs>
    <linearGradient id="g" x1="20" y1="220" x2="220" y2="20" gradientUnits="userSpaceOnUse">
      <stop stop-color="#10B981"/>
      <stop offset="0.5" stop-color="#06B6D4"/>
      <stop offset="1" stop-color="#6366F1"/>
    </linearGradient>
  </defs>
  <rect x="16" y="16" width="208" height="208" rx="48" fill="#0F172A"/>
  <rect x="28" y="28" width="184" height="184" rx="40" fill="url(#g)" opacity="0.08"/>
  <path d="M78 74h62c21 0 34 11 34 29 0 15-10 27-25 29l-8 1 31 39H150l-30-39h-24v39H78V74Zm58 52c10 0 17-6 17-15s-6-14-17-14H96v29h40Z" fill="url(#g)" />
  <path d="M148 190c-31 0-56-25-56-56s25-56 56-56c19 0 35 9 45 23-9-19-28-32-50-32-31 0-56 25-56 56s25 56 56 56c22 0 41-13 50-32-10 14-26 23-45 23Z" fill="url(#g)" opacity="0.35"/>
</svg>
