<svg width="320" height="320" viewBox="0 0 320 320" fill="none" xmlns="http://www.w3.org/2000/svg">
  <defs>
    <linearGradient id="tf" x1="70" y1="260" x2="250" y2="70" gradientUnits="userSpaceOnUse">
      <stop stop-color="#10B981"/>
      <stop offset="0.5" stop-color="#06B6D4"/>
      <stop offset="1" stop-color="#6366F1"/>
    </linearGradient>
    <linearGradient id="shadow" x1="60" y1="250" x2="240" y2="90" gradientUnits="userSpaceOnUse">
      <stop stop-color="#0B1220" stop-opacity="0.35"/>
      <stop offset="1" stop-color="#0B1220" stop-opacity="0.12"/>
    </linearGradient>
  </defs>
  <rect x="18" y="18" width="284" height="284" rx="64" fill="#0F172A"/>
  <rect x="30" y="30" width="260" height="260" rx="56" fill="url(#shadow)"/>

  <!-- Monogram TF with saw edge on F -->
  <!-- T stem and top bar -->
  <path d="M90 92c0-6.6 5.4-12 12-12h116c6.6 0 12 5.4 12 12s-5.4 12-12 12h-46v126c0 6.6-5.4 12-12 12h-12c-6.6 0-12-5.4-12-12V104H102c-6.6 0-12-5.4-12-12Z" fill="url(#tf)"/>

  <!-- F arm with saw teeth -->
  <path d="M160 138c0-5 4-9 9-9h41c5 0 9 4 9 9s-4 9-9 9h-32v22h27c5 0 9 4 9 9s-4 9-9 9h-36c-5 0-9-4-9-9v-40Z" fill="url(#tf)"/>

  <!-- Saw blade arc on outer right -->
  <path d="M214 110c28 10 46 34 46 64 0 17-6 33-16 45l-14-10 14-10-14-10 14-10-14-10 14-10-14-10 14-10-14-10 14-10-14-10 14-10-14-10Z" fill="url(#tf)"/>

  <!-- Spark/dot -->
  <circle cx="246" cy="160" r="10" fill="url(#tf)"/>
</svg>
