<svg width="320" height="320" viewBox="0 0 320 320" fill="none" xmlns="http://www.w3.org/2000/svg">
  <defs>
    <linearGradient id="wood" x1="60" y1="280" x2="260" y2="40" gradientUnits="userSpaceOnUse">
      <stop stop-color="#C49A6C"/>
      <stop offset="1" stop-color="#9C7548"/>
    </linearGradient>
    <linearGradient id="grain" x1="50" y1="260" x2="270" y2="80" gradientUnits="userSpaceOnUse">
      <stop stop-color="#5B422B" stop-opacity="0.16"/>
      <stop offset="1" stop-color="#3B291A" stop-opacity="0.05"/>
    </linearGradient>
  </defs>

  <rect x="20" y="20" width="280" height="280" rx="64" fill="#0F172A"/>
  <rect x="32" y="32" width="256" height="256" rx="56" fill="url(#grain)"/>

  <!-- Main R body with saw-edge -->
  <path fill="url(#wood)" d="
    M94 82
    h78
    c32 0 56 22 56 52
    c0 26-17 46-42 51
    l-6.5 1.3 42.5 71.7
    h-38l-40-66h-25v66h-25
    c-5.5 0-10-4.5-10-10V92
    c0-5.5 4.5-10 10-10
    Z
    M119 107
    v58
    h53
    c16 0 27-11 27-29
    c0-18-11-29-27-29
    h-53
    Z" />

  <!-- Saw teeth on right edge -->
  <path fill="url(#wood)" d="
    M228 110
    l18 10 -16 10 16 10 -18 10 18 10 -16 10 16 10 -18 10
    l12 8
    c5.5-8 8-18 8-31
    c0-20-8-38-22-48Z"/>

  <!-- Dot / spark -->
  <circle cx="248" cy="156" r="12" fill="url(#wood)"/>

  <!-- Subtle underline marks (optional identity) -->
  <rect x="150" y="242" width="16" height="10" rx="2" fill="url(#wood)"/>
  <rect x="170" y="242" width="16" height="10" rx="2" fill="url(#wood)"/>
</svg>
